<svg xmlns="http://www.w3.org/2000/svg" xmlns:xlink="http://www.w3.org/1999/xlink"><symbol id="angle-down" viewBox="0 0 24 24"><g fill="none" fill-rule="evenodd"><path d="M0 0h24v24H0z"/><path fill="currentColor" d="M12 13.5l5-5 1.5 1.5-6.5 6.5L5.5 10 7 8.5z"/></g></symbol><use xlink:href="#angle-down" width="24" height="24"/><view id="angle-down-view" viewBox="0 0 24 24"/><symbol id="angle-up" viewBox="0 0 24 24"><g fill="none" fill-rule="evenodd"><path d="M0 24h24V0H0z"/><path fill="currentColor" d="M12 11.5l5 5 1.5-1.5L12 8.5 5.5 15 7 16.5z"/></g></symbol><use xlink:href="#angle-up" y="24" width="24" height="24"/><view id="angle-up-view" viewBox="0 24 24 24"/><symbol id="arrow-up" viewBox="0 0 24 24"><g fill="none" fill-rule="evenodd"><path d="M0 0h24v24H0z"/><path fill="currentColor" d="M12 3.5l6.5 6.5-1.5 1.5-4-4V20h-2V7.5l-4 4L5.5 10z"/></g></symbol><use xlink:href="#arrow-up" y="48" width="24" height="24"/><view id="arrow-up-view" viewBox="0 48 24 24"/><symbol id="cross" viewBox="0 0 24 24"><g fill="none" fill-rule="evenodd"><path d="M0 0h24v24H0z"/><path fill="currentColor" d="M18 7.5L13.5 12l4.5 4.5-1.5 1.5-4.5-4.5L7.5 18 6 16.5l4.5-4.5L6 7.5 7.5 6l4.5 4.5L16.5 6z"/></g></symbol><use xlink:href="#cross" y="72" width="24" height="24"/><view id="cross-view" viewBox="0 72 24 24"/><symbol id="menu-hamburger" viewBox="0 0 24 24"><g fill="none" fill-rule="evenodd"><path d="M0 0h24v24H0z"/><path d="M22 17v2H2v-2h20zm0-6v2H2v-2h20zm0-6v2H2V5h20z" fill="currentColor"/></g></symbol><use xlink:href="#menu-hamburger" y="96" width="24" height="24"/><view id="menu-hamburger-view" viewBox="0 96 24 24"/><symbol id="test" viewBox="0 0 100 100"><path d="M50 10c22.1 0 40 17.9 40 40S72.1 90 50 90 10 72.1 10 50s17.9-40 40-40m0-10C22.4 0 0 22.4 0 50s22.4 50 50 50 50-22.4 50-50S77.6 0 50 0z"/><path d="M63.1 72.9c-.7.6-1.8 1.3-3.4 2.1-1.6.8-3.6 1.2-5.8 1.2-3.3 0-6-.9-8-2.7-2-1.8-3-4.7-3-8.8V45.5h-6.1v-8.1H43v-7.7l10.6-5.9v13.6h8.6v8.1h-8.6v18.3c0 1.5.2 2.5.7 3.1.5.6 1.1.9 2 .9.8 0 1.4-.3 1.9-.8.5-.6.8-1.1 1.1-1.6l3.8 7.5z"/></symbol><use xlink:href="#test" y="120" width="100" height="100"/><view id="test-view" viewBox="0 120 100 100"/></svg>